# xmcd
#
# Track frame offsets:
#	150
#	18281
#	34486
#	49288
#
# Disc length: 845 seconds
#
# Revision: 0
# Processed by: cddbd v1.5.1PL2 Copyright (c) Steve Scherf et al.
# Submitted via: dBpowerAMP V4.0
#
DISCID=2f034b04
DTITLE=Moraine - We Won't Stop Until We See Our Name in Lights EP
DYEAR=2006
DGENRE=Alt Pop Punk
TTITLE0=The Best Is Yet To Come By
TTITLE1=Downside To A Double Life
TTITLE2=Show Us What It Means
TTITLE3=I Saw This In A Movie Once
EXTD=
EXTT0=
EXTT1=
EXTT2=
EXTT3=
PLAYORDER=
